<mxfile host="app.diagrams.net" modified="2024-07-09T01:20:34.038Z" agent="Mozilla/5.0 (Windows NT 10.0; Win64; x64) AppleWebKit/537.36 (KHTML, like Gecko) Chrome/126.0.0.0 Safari/537.36" etag="cSCBC5jk__Wakq7GY0TL" version="24.6.4" type="github">
  <diagram name="第 1 页" id="0yziPrTlGx9PvfhWouy7">
    <mxGraphModel dx="683" dy="371" grid="1" gridSize="10" guides="1" tooltips="1" connect="1" arrows="1" fold="1" page="1" pageScale="1" pageWidth="827" pageHeight="1169" math="0" shadow="0">
      <root>
        <mxCell id="0" />
        <mxCell id="1" parent="0" />
        <mxCell id="9kN9pM6WHrieHIEHuWm_-8" value="" style="rounded=0;whiteSpace=wrap;html=1;" vertex="1" parent="1">
          <mxGeometry x="36.5" y="390" width="417" height="110" as="geometry" />
        </mxCell>
        <mxCell id="981yPH26ms_cpOQFAlSB-1" value="&lt;h1 style=&quot;margin-top: 0px; font-size: 9px; line-height: 100%;&quot;&gt;BIM&lt;/h1&gt;&lt;div style=&quot;font-size: 9px; line-height: 100%;&quot;&gt;&lt;font style=&quot;font-size: 9px;&quot;&gt;rvt,dgn,ifc&lt;/font&gt;&lt;/div&gt;" style="text;html=1;whiteSpace=wrap;overflow=hidden;rounded=0;align=center;strokeColor=default;fillColor=none;fontSize=9;spacing=0;" parent="1" vertex="1">
          <mxGeometry x="187" y="440" width="90" height="36" as="geometry" />
        </mxCell>
        <mxCell id="981yPH26ms_cpOQFAlSB-2" value="&lt;h1 style=&quot;margin-top: 0px; font-size: 9px; line-height: 100%;&quot;&gt;MODEL&lt;/h1&gt;&lt;div style=&quot;font-size: 9px; line-height: 100%;&quot;&gt;&lt;font style=&quot;font-size: 9px;&quot;&gt;skp,obj,nwd,fbx,glb,las&lt;/font&gt;&lt;/div&gt;" style="text;html=1;whiteSpace=wrap;overflow=hidden;rounded=0;align=center;strokeColor=default;fillColor=none;fontSize=9;spacing=0;" parent="1" vertex="1">
          <mxGeometry x="313" y="440" width="127" height="36" as="geometry" />
        </mxCell>
        <mxCell id="981yPH26ms_cpOQFAlSB-3" value="&lt;h1 style=&quot;margin-top: 0px; line-height: 100%; font-size: 9px;&quot;&gt;GIS&lt;/h1&gt;&lt;div style=&quot;font-size: 9px; line-height: 100%;&quot;&gt;&lt;span style=&quot;font-size: 9px;&quot;&gt;shp,wfs,wmts,3dtile&lt;/span&gt;&lt;/div&gt;" style="text;html=1;whiteSpace=wrap;overflow=hidden;rounded=0;align=center;strokeColor=default;fillColor=none;fontSize=9;spacing=0;" parent="1" vertex="1">
          <mxGeometry x="50" y="440" width="100" height="36" as="geometry" />
        </mxCell>
        <mxCell id="981yPH26ms_cpOQFAlSB-4" value="&lt;h1 style=&quot;margin-top: 0px; font-size: 10px;&quot;&gt;地形&lt;/h1&gt;" style="text;html=1;whiteSpace=wrap;overflow=hidden;rounded=0;align=center;strokeColor=default;fillColor=none;fontSize=10;labelPosition=center;verticalLabelPosition=middle;verticalAlign=middle;flipH=1;" parent="1" vertex="1">
          <mxGeometry x="50" y="400" width="50" height="17" as="geometry" />
        </mxCell>
        <mxCell id="981yPH26ms_cpOQFAlSB-5" value="&lt;h1 style=&quot;margin-top: 0px; font-size: 10px;&quot;&gt;影像&lt;/h1&gt;" style="text;html=1;whiteSpace=wrap;overflow=hidden;rounded=0;align=center;strokeColor=default;fillColor=none;fontSize=10;labelPosition=center;verticalLabelPosition=middle;verticalAlign=middle;flipH=1;" parent="1" vertex="1">
          <mxGeometry x="107" y="400" width="50" height="17" as="geometry" />
        </mxCell>
        <mxCell id="981yPH26ms_cpOQFAlSB-6" value="&lt;h1 style=&quot;margin-top: 0px; font-size: 10px;&quot;&gt;道路&lt;/h1&gt;" style="text;html=1;whiteSpace=wrap;overflow=hidden;rounded=0;align=center;strokeColor=default;fillColor=none;fontSize=10;labelPosition=center;verticalLabelPosition=middle;verticalAlign=middle;flipH=1;" parent="1" vertex="1">
          <mxGeometry x="277" y="400" width="50" height="17" as="geometry" />
        </mxCell>
        <mxCell id="981yPH26ms_cpOQFAlSB-7" value="&lt;h1 style=&quot;margin-top: 0px; font-size: 10px;&quot;&gt;水域&lt;/h1&gt;" style="text;html=1;whiteSpace=wrap;overflow=hidden;rounded=0;align=center;strokeColor=default;fillColor=none;fontSize=10;labelPosition=center;verticalLabelPosition=middle;verticalAlign=middle;flipH=1;" parent="1" vertex="1">
          <mxGeometry x="220" y="400" width="50" height="17" as="geometry" />
        </mxCell>
        <mxCell id="981yPH26ms_cpOQFAlSB-8" value="&lt;h1 style=&quot;margin-top: 0px; font-size: 10px;&quot;&gt;植被&lt;/h1&gt;" style="text;html=1;whiteSpace=wrap;overflow=hidden;rounded=0;align=center;strokeColor=default;fillColor=none;fontSize=10;labelPosition=center;verticalLabelPosition=middle;verticalAlign=middle;flipH=1;" parent="1" vertex="1">
          <mxGeometry x="163" y="400" width="50" height="17" as="geometry" />
        </mxCell>
        <mxCell id="981yPH26ms_cpOQFAlSB-9" value="&lt;h1 style=&quot;margin-top: 0px; font-size: 10px;&quot;&gt;建筑&lt;/h1&gt;" style="text;html=1;whiteSpace=wrap;overflow=hidden;rounded=0;align=center;strokeColor=default;fillColor=none;fontSize=10;labelPosition=center;verticalLabelPosition=middle;verticalAlign=middle;flipH=1;" parent="1" vertex="1">
          <mxGeometry x="333" y="400" width="50" height="17" as="geometry" />
        </mxCell>
        <mxCell id="pltdYUiWtJvwTpkYsrbc-1" value="&lt;h1 style=&quot;margin-top: 0px; font-size: 10px;&quot;&gt;单体&lt;/h1&gt;" style="text;html=1;whiteSpace=wrap;overflow=hidden;rounded=0;align=center;strokeColor=default;fillColor=none;fontSize=10;labelPosition=center;verticalLabelPosition=middle;verticalAlign=middle;flipH=1;" parent="1" vertex="1">
          <mxGeometry x="390" y="400" width="50" height="17" as="geometry" />
        </mxCell>
        <mxCell id="pltdYUiWtJvwTpkYsrbc-2" value="" style="endArrow=none;html=1;rounded=0;entryX=0.5;entryY=1;entryDx=0;entryDy=0;" parent="1" target="981yPH26ms_cpOQFAlSB-4" edge="1">
          <mxGeometry width="50" height="50" relative="1" as="geometry">
            <mxPoint x="100" y="440" as="sourcePoint" />
            <mxPoint x="150" y="390" as="targetPoint" />
          </mxGeometry>
        </mxCell>
        <mxCell id="pltdYUiWtJvwTpkYsrbc-3" value="" style="endArrow=none;html=1;rounded=0;entryX=0.5;entryY=1;entryDx=0;entryDy=0;exitX=0.5;exitY=0;exitDx=0;exitDy=0;" parent="1" source="981yPH26ms_cpOQFAlSB-3" target="981yPH26ms_cpOQFAlSB-5" edge="1">
          <mxGeometry width="50" height="50" relative="1" as="geometry">
            <mxPoint x="110" y="450" as="sourcePoint" />
            <mxPoint x="85" y="410" as="targetPoint" />
          </mxGeometry>
        </mxCell>
        <mxCell id="pltdYUiWtJvwTpkYsrbc-4" value="" style="endArrow=none;html=1;rounded=0;entryX=0.5;entryY=1;entryDx=0;entryDy=0;exitX=0.5;exitY=0;exitDx=0;exitDy=0;" parent="1" source="981yPH26ms_cpOQFAlSB-3" target="981yPH26ms_cpOQFAlSB-6" edge="1">
          <mxGeometry width="50" height="50" relative="1" as="geometry">
            <mxPoint x="110" y="450" as="sourcePoint" />
            <mxPoint x="142" y="410" as="targetPoint" />
          </mxGeometry>
        </mxCell>
        <mxCell id="9kN9pM6WHrieHIEHuWm_-1" value="" style="endArrow=none;html=1;rounded=0;entryX=0.5;entryY=1;entryDx=0;entryDy=0;exitX=0.5;exitY=0;exitDx=0;exitDy=0;" edge="1" parent="1" target="pltdYUiWtJvwTpkYsrbc-1">
          <mxGeometry width="50" height="50" relative="1" as="geometry">
            <mxPoint x="230" y="440" as="sourcePoint" />
            <mxPoint x="432" y="400" as="targetPoint" />
          </mxGeometry>
        </mxCell>
        <mxCell id="9kN9pM6WHrieHIEHuWm_-2" value="" style="endArrow=none;html=1;rounded=0;entryX=0.5;entryY=1;entryDx=0;entryDy=0;exitX=0.5;exitY=0;exitDx=0;exitDy=0;" edge="1" parent="1" source="981yPH26ms_cpOQFAlSB-1" target="981yPH26ms_cpOQFAlSB-9">
          <mxGeometry width="50" height="50" relative="1" as="geometry">
            <mxPoint x="240" y="450" as="sourcePoint" />
            <mxPoint x="425" y="410" as="targetPoint" />
          </mxGeometry>
        </mxCell>
        <mxCell id="9kN9pM6WHrieHIEHuWm_-3" value="" style="endArrow=none;html=1;rounded=0;entryX=0.5;entryY=1;entryDx=0;entryDy=0;exitX=0.5;exitY=0;exitDx=0;exitDy=0;" edge="1" parent="1" target="981yPH26ms_cpOQFAlSB-7">
          <mxGeometry width="50" height="50" relative="1" as="geometry">
            <mxPoint x="100" y="440" as="sourcePoint" />
            <mxPoint x="132" y="400" as="targetPoint" />
          </mxGeometry>
        </mxCell>
        <mxCell id="9kN9pM6WHrieHIEHuWm_-4" value="" style="endArrow=none;html=1;rounded=0;entryX=0.5;entryY=1;entryDx=0;entryDy=0;exitX=0.5;exitY=0;exitDx=0;exitDy=0;" edge="1" parent="1" source="981yPH26ms_cpOQFAlSB-2" target="981yPH26ms_cpOQFAlSB-8">
          <mxGeometry width="50" height="50" relative="1" as="geometry">
            <mxPoint x="370" y="440" as="sourcePoint" />
            <mxPoint x="555" y="400" as="targetPoint" />
          </mxGeometry>
        </mxCell>
        <mxCell id="9kN9pM6WHrieHIEHuWm_-5" value="" style="endArrow=none;html=1;rounded=0;entryX=0.5;entryY=1;entryDx=0;entryDy=0;exitX=0.5;exitY=0;exitDx=0;exitDy=0;" edge="1" parent="1" target="pltdYUiWtJvwTpkYsrbc-1">
          <mxGeometry width="50" height="50" relative="1" as="geometry">
            <mxPoint x="375" y="440" as="sourcePoint" />
            <mxPoint x="187" y="400" as="targetPoint" />
          </mxGeometry>
        </mxCell>
        <mxCell id="9kN9pM6WHrieHIEHuWm_-6" value="" style="endArrow=none;html=1;rounded=0;entryX=0.5;entryY=1;entryDx=0;entryDy=0;exitX=0.5;exitY=0;exitDx=0;exitDy=0;" edge="1" parent="1" target="981yPH26ms_cpOQFAlSB-9">
          <mxGeometry width="50" height="50" relative="1" as="geometry">
            <mxPoint x="374" y="440" as="sourcePoint" />
            <mxPoint x="414" y="400" as="targetPoint" />
          </mxGeometry>
        </mxCell>
        <mxCell id="9kN9pM6WHrieHIEHuWm_-10" value="&lt;h1 style=&quot;margin-top: 0px; font-size: 10px;&quot;&gt;地形&lt;/h1&gt;" style="text;html=1;whiteSpace=wrap;overflow=hidden;rounded=0;align=center;strokeColor=default;fillColor=none;fontSize=10;labelPosition=center;verticalLabelPosition=middle;verticalAlign=middle;flipH=1;" vertex="1" parent="1">
          <mxGeometry x="36.5" y="330" width="50" height="17" as="geometry" />
        </mxCell>
      </root>
    </mxGraphModel>
  </diagram>
</mxfile>
